<svg width="287" height="51" viewBox="0 0 287 51" fill="none" xmlns="http://www.w3.org/2000/svg">
<path d="M70.2627 15.8385L78.2812 26.069L86.4656 15.8385H86.9633V35H85.3043V22.0045C85.3043 21.4515 85.378 20.5483 85.5255 19.2948C84.5485 20.6589 83.3412 22.2441 81.9034 24.0506C80.4656 25.8571 79.2674 27.2672 78.3089 28.281C76.0047 25.6819 74.0784 23.4423 72.53 21.5621C72.2535 21.2119 72.0139 20.8893 71.8111 20.5943C71.6083 20.2994 71.4056 19.9676 71.2028 19.5989C71.2028 19.5436 71.2397 19.7925 71.3134 20.3455C71.3871 20.8985 71.424 21.3225 71.424 21.6174V35H69.765V15.8385H70.2627ZM93.8831 16.0874H95.5698V35H93.8831V16.0874ZM102.475 16.0874H104.134V33.4516H113.729V35H102.475V16.0874ZM118.79 16.0874H120.449V33.4516H130.043V35H118.79V16.0874ZM135.077 16.0874H147.215V17.6358H136.736V24.2165H144.45V25.7649H136.736V33.4516H147.768V35H135.077V16.0874ZM153.039 15.8109H153.564L165.758 31.0184L166.698 32.2626L166.67 30.8801V16.0597H168.329V35.0277H167.251L165.703 33.4239L155.97 21.3685L154.532 19.4883L154.698 21.6727V35H153.039V15.8109ZM175.24 15.8109H175.765L187.959 31.0184L188.899 32.2626L188.871 30.8801V16.0597H190.53V35.0277H189.452L187.904 33.4239L178.171 21.3685L176.733 19.4883L176.899 21.6727V35H175.24V15.8109ZM197.441 16.0874H199.128V35H197.441V16.0874ZM214.107 35.4701C212.337 35.4701 210.734 35.0369 209.296 34.1705C207.876 33.2857 206.761 32.0967 205.95 30.6036C205.139 29.1105 204.734 27.47 204.734 25.6819C204.734 23.857 205.157 22.1612 206.005 20.5943C206.872 19.0275 208.024 17.7833 209.462 16.8616C210.918 15.9215 212.503 15.4514 214.217 15.4514C215.895 15.4514 217.425 15.8293 218.807 16.5851C220.19 17.3224 220.863 18.6681 220.826 20.622H218.641C218.697 19.4607 218.236 18.6588 217.259 18.2164C216.3 17.774 215.241 17.5528 214.079 17.5528C212.789 17.5528 211.6 17.9399 210.512 18.7141C209.425 19.4699 208.558 20.4837 207.913 21.7556C207.268 23.0091 206.946 24.3455 206.946 25.7649C206.946 27.129 207.25 28.3916 207.858 29.5529C208.485 30.7142 209.342 31.6451 210.429 32.3456C211.517 33.0276 212.752 33.3686 214.135 33.3686C215.425 33.3686 216.614 33.0737 217.701 32.4838C218.807 31.894 219.683 31.0553 220.328 29.9677L222.181 31.2396C221.314 32.6405 220.153 33.7004 218.697 34.4193C217.259 35.1198 215.729 35.4701 214.107 35.4701ZM233.104 15.5067H234.016L242.173 35.0277H239.768L237.168 28.917H229.952L227.408 35.0277H225.002L233.104 15.5067ZM233.933 20.9538L233.712 20.2349L233.546 19.5989L233.353 20.2072L233.132 20.9538L230.809 26.8709H236.284L233.933 20.9538ZM261.159 34.7235C260.828 35.0922 260.293 35.2765 259.556 35.2765C258.597 35.2765 257.823 34.8894 257.233 34.1152L254.026 29.7188C253.675 29.258 253.362 28.8893 253.086 28.6128C252.828 28.3363 252.468 28.1059 252.007 27.9216C251.565 27.7188 251.012 27.6082 250.348 27.5898V25.4607H253.003C254.09 25.4607 254.947 25.1474 255.574 24.5206C256.201 23.8755 256.514 22.9999 256.514 21.8939C256.514 20.7879 256.21 19.8847 255.602 19.1842C255.012 18.4837 254.247 18.1335 253.307 18.1335H249.325V35.0277H247.058V16.0321H253.417C254.413 16.0321 255.316 16.2902 256.127 16.8063C256.957 17.3224 257.602 18.0137 258.063 18.8801C258.542 19.728 258.781 20.6404 258.781 21.6174C258.781 22.7971 258.468 23.857 257.841 24.7971C257.215 25.7372 256.45 26.3363 255.546 26.5944C255.104 26.7234 254.367 26.7879 253.334 26.7879C253.869 26.9354 254.256 27.0921 254.496 27.258C254.754 27.4055 255.03 27.6635 255.325 28.0322L256.348 29.4147C257.786 31.3502 258.597 32.4378 258.781 32.6774C258.947 32.8802 259.086 33.0276 259.196 33.1198C259.325 33.1935 259.454 33.2304 259.583 33.2304C259.805 33.2304 259.998 33.1474 260.164 32.9815L261.159 34.7235ZM265.965 16.0321H278.352V18.1335H268.177V23.9123H275.67V26.0137H268.177V32.9262H278.877V35.0277H265.965V16.0321Z" fill="black"/>
<path d="M0 20.2674C0.0920779 20.1272 0.202232 19.9998 0.327601 19.8886C0.579697 19.6421 0.913373 19.4971 1.26515 19.4812C2.11668 19.416 2.96474 19.6458 3.66755 20.1322C4.20667 20.508 4.63461 20.9923 5.03009 21.5131C5.48735 22.1265 5.83518 22.8146 6.05815 23.547C6.31924 24.3722 6.50722 25.2188 6.61989 26.0771C6.64153 26.2438 6.64744 26.4125 6.65826 26.5801C6.68722 27.2228 6.74928 27.8634 6.84419 28.4996C6.89149 28.8585 7.02668 29.2001 7.23771 29.4939C7.2565 29.5172 7.26914 29.5448 7.27447 29.5743C7.2798 29.6038 7.27764 29.6341 7.26821 29.6626C7.25724 29.6969 7.24274 29.7299 7.22492 29.7612C6.79105 30.5806 6.47917 31.4592 6.29918 32.3692C6.15552 33.107 5.96593 33.835 5.73153 34.549C5.39926 35.5799 4.94233 36.566 4.37096 37.4855C4.1742 37.7903 3.95777 38.0773 3.76396 38.3801C3.60262 38.6346 3.45112 38.893 3.4039 39.1998C3.39099 39.2664 3.39146 39.3349 3.40528 39.4012C3.4191 39.4676 3.44599 39.5306 3.48437 39.5865C3.52276 39.6423 3.57187 39.6899 3.62883 39.7265C3.68579 39.7631 3.74946 39.7879 3.8161 39.7995C3.91926 39.82 4.02551 39.8193 4.12836 39.7972C4.2312 39.7752 4.32848 39.7323 4.41424 39.6713C4.84471 39.3523 5.21599 38.96 5.51117 38.5123C5.81354 38.0928 6.07698 37.6464 6.29819 37.1787C6.35224 37.0575 6.4283 36.9475 6.5225 36.8542C6.6317 36.7487 6.75172 36.6786 6.91011 36.7388C6.98393 36.766 7.04795 36.8147 7.09389 36.8787C7.13983 36.9427 7.1656 37.019 7.16786 37.0978C7.1812 37.2902 7.16123 37.4834 7.10883 37.6689C6.83042 38.8013 6.49495 39.9189 6.17817 41.0433C6.04872 41.4758 5.98472 41.9254 5.9883 42.3769C5.98706 42.5642 6.02704 42.7494 6.10537 42.9194C6.24113 43.1936 6.42609 43.2646 6.71237 43.1532C6.91388 43.0698 7.08206 42.9216 7.19049 42.732C7.37889 42.4025 7.50527 42.041 7.56334 41.6657C7.75294 40.7224 8.01878 39.7961 8.35824 38.896C8.44709 38.6461 8.56885 38.4093 8.72027 38.1917C8.81865 38.0536 8.93769 37.9333 9.13051 37.9372C9.18778 37.931 9.24529 37.9466 9.2916 37.981C9.3379 38.0154 9.3696 38.0659 9.38039 38.1227C9.39545 38.181 9.40273 38.241 9.40204 38.3012C9.41189 38.62 9.404 38.9391 9.37843 39.257C9.36564 39.3764 9.36957 39.4977 9.36859 39.618C9.35056 40.3273 9.29605 41.0351 9.20528 41.7387C9.13641 42.372 8.99967 42.9954 8.94458 43.6306C8.91365 43.9915 8.91134 44.3543 8.93769 44.7156C8.95115 44.8533 8.99054 44.9872 9.05378 45.1101C9.22299 45.4642 9.89688 45.6092 10.2284 45.2088C10.4468 44.9355 10.5951 44.6128 10.6603 44.2688C10.7025 44.0504 10.7284 43.8291 10.738 43.6069C10.7646 43.1265 10.7784 42.6462 10.8315 42.1678C10.859 41.9232 10.8541 41.6746 10.8649 41.429C10.8836 40.9654 10.9417 40.5067 10.9928 40.0481C11.0423 39.5576 11.1255 39.0712 11.2417 38.5922C11.296 38.3387 11.3868 38.0945 11.5113 37.8672C11.5598 37.778 11.6269 37.7002 11.708 37.6393C11.7428 37.6126 11.7827 37.5933 11.8252 37.5827C11.8677 37.5721 11.912 37.5704 11.9552 37.5777C11.9984 37.585 12.0396 37.6012 12.0763 37.6252C12.113 37.6492 12.1444 37.6806 12.1684 37.7173C12.2394 37.8219 12.2945 37.9366 12.3317 38.0576C12.4849 38.5005 12.5911 38.9584 12.6485 39.4237C12.7469 40.3441 12.9113 41.2563 13.1404 42.153C13.3146 42.7951 13.5261 43.4175 13.9127 43.9679C14.0162 44.144 14.1396 44.3075 14.2806 44.4552C14.388 44.5626 14.5316 44.6257 14.6832 44.6321C14.8347 44.6385 14.9831 44.5877 15.0991 44.4897C15.2298 44.3925 15.3359 44.266 15.4089 44.1202C15.4818 43.9744 15.5196 43.8134 15.5192 43.6503C15.5232 43.1987 15.467 42.7485 15.352 42.3118C15.1198 41.3057 14.8679 40.3026 14.6761 39.2866C14.5354 38.5429 14.4026 37.7982 14.3249 37.0446C14.2534 36.5263 14.2205 36.0034 14.2265 35.4802C14.2472 35.0057 14.3023 34.5333 14.5276 34.0993C14.6791 33.8033 14.8532 33.7215 15.1759 33.8142C15.4675 33.9072 15.7474 34.0336 16.0101 34.191C16.3515 34.3823 16.6594 34.625 16.9811 34.845C17.532 35.2208 18.1164 35.5167 18.7775 35.6419C19.2311 35.7427 19.7038 35.7126 20.141 35.5551C20.276 35.5127 20.4003 35.4416 20.5054 35.3466C20.6105 35.2516 20.6939 35.135 20.75 35.0047C20.7892 34.9099 20.8045 34.8068 20.7945 34.7046C20.7846 34.6025 20.7497 34.5043 20.6929 34.4188C20.5466 34.1968 20.347 34.015 20.1125 33.8901C19.7721 33.686 19.4239 33.5064 19.0667 33.3259C18.6498 33.125 18.2542 32.8821 17.8862 32.601C17.328 32.1527 16.8448 31.6179 16.4548 31.0168C16.1115 30.4941 15.7947 29.9545 15.411 29.4594C15.1454 29.1171 14.8709 28.7827 14.5148 28.5282C14.3653 28.4165 14.1956 28.335 14.015 28.2885C13.8428 28.2471 13.8114 28.1899 13.8182 28.0193C13.8315 27.8867 13.8746 27.7589 13.9442 27.6454C14.1566 27.2541 14.3983 26.8795 14.6673 26.5249C15.1532 25.8907 15.651 25.2614 16.1065 24.6074C16.6142 23.8841 17.1061 23.1502 17.5822 22.4058C18.2709 21.3386 18.9034 20.2358 19.6196 19.1922C20.427 18.0086 21.2278 16.8229 22.022 15.6354C22.4834 14.9449 22.9724 14.2751 23.479 13.6182C23.6863 13.345 23.9262 13.0982 24.1932 12.8834C24.4596 12.677 24.7736 12.5413 25.1062 12.4888C25.2499 12.4762 25.3947 12.4906 25.5332 12.5312C26.1992 12.6703 26.5327 13.129 26.6783 13.7543C26.7668 14.1351 26.6783 14.506 26.5799 14.8749C26.4777 15.2338 26.3396 15.5814 26.1677 15.9125C25.7742 16.7194 25.3551 17.5104 24.8888 18.2798C24.4362 19.0255 23.9867 19.7722 23.5528 20.5287C22.9989 21.4944 22.4451 22.4581 21.8686 23.4099C21.4947 24.0274 21.0943 24.6271 20.688 25.2229C20.1863 25.9577 19.6924 26.6975 19.1996 27.4383C19.0301 27.6732 18.9078 27.9388 18.8395 28.2205C18.7764 28.5234 18.8091 28.8386 18.9329 29.122C18.9917 29.2718 19.1015 29.3958 19.243 29.4719C19.3845 29.5479 19.5483 29.5711 19.7052 29.5373C20.0174 29.4743 20.3149 29.3525 20.5818 29.1782C21.258 28.7298 21.9207 28.2629 22.57 27.7776C23.2587 27.2657 23.9552 26.7626 24.6428 26.2467C25.4063 25.6746 26.1923 25.1321 26.9616 24.565C27.667 24.0452 28.3615 23.5096 29.0669 22.9868C29.8362 22.4206 30.6341 21.9018 31.4437 21.3889C31.9219 21.093 32.3911 20.7753 32.8712 20.4794C33.405 20.1427 33.9721 19.8621 34.5633 19.642C34.9312 19.5025 35.3349 19.4904 35.7104 19.6075C35.9182 19.6626 36.1036 19.7815 36.2405 19.9477C36.3774 20.1138 36.459 20.3187 36.4738 20.5337C36.5516 21.2843 36.3174 21.9304 35.8245 22.4916C35.3927 22.9694 34.9037 23.3918 34.3685 23.7493C33.0542 24.6587 31.7989 25.646 30.5318 26.6157C29.7054 27.2469 28.8741 27.8703 28.0556 28.5095C27.0895 29.265 26.088 29.9654 25.1111 30.7091C24.6379 31.0691 24.1873 31.4587 23.8411 31.9529C23.6955 32.1597 23.5747 32.3828 23.481 32.6177C23.4544 32.6845 23.4353 32.7539 23.4239 32.8249C23.3856 33.0833 23.5174 33.2589 23.7791 33.2835C23.9714 33.2991 24.1647 33.2697 24.3438 33.1977C25.0103 32.9409 25.6625 32.6482 26.2976 32.3208C26.9597 31.9815 27.5971 31.5968 28.2514 31.2358C28.9567 30.8511 29.6601 30.4595 30.3635 30.0699C31.2204 29.5965 32.0744 29.1201 32.9322 28.6496C33.8058 28.1692 34.6794 27.6878 35.6071 27.3179C35.9119 27.19 36.2344 27.1092 36.5634 27.0783C36.8648 27.0511 37.1672 27.1201 37.4271 27.2755C37.6898 27.4343 37.7793 27.6878 37.799 27.9768C37.8027 28.1212 37.7875 28.2655 37.7537 28.4059C37.614 29.1141 37.2195 29.6389 36.6194 30.0275C36.161 30.3234 35.6966 30.6134 35.2146 30.8709C34.2456 31.3887 33.312 31.9707 32.3616 32.5132C31.5313 32.9856 30.703 33.4601 29.8943 33.9671C28.9761 34.5444 28.0579 35.1261 27.1397 35.712C26.756 35.9586 26.3704 36.2052 26.0123 36.4873C25.6805 36.7358 25.3663 37.0071 25.0718 37.299C24.9347 37.4279 24.8399 37.5954 24.7996 37.7794C24.7594 37.9634 24.7758 38.1553 24.8465 38.3298C24.8963 38.4858 24.9959 38.6211 25.13 38.7148C25.264 38.8086 25.425 38.8556 25.5883 38.8486C25.8464 38.8516 26.1032 38.8123 26.3487 38.7323C27.1554 38.4807 27.9592 38.2174 28.7718 37.9846C29.5588 37.7607 30.3321 37.5121 31.1329 37.3494C31.7379 37.227 32.3469 37.1353 32.9607 37.0673C33.6834 36.9945 34.4103 36.9744 35.1359 37.0071C35.5326 37.0105 35.9261 37.0792 36.3007 37.2103C36.5302 37.2871 36.7355 37.4232 36.8959 37.6048C37.052 37.8069 37.1246 38.0614 37.0988 38.3157C37.073 38.57 36.9507 38.8046 36.7572 38.971C36.4811 39.2041 36.1647 39.3843 35.8236 39.5026C35.1005 39.761 34.3593 39.9651 33.6061 40.1132C32.5672 40.3302 31.5274 40.5413 30.5082 40.8411C29.3178 41.1913 28.1392 41.5809 26.9774 42.0198C26.2259 42.2891 25.4938 42.6101 24.7865 42.9806C24.2946 43.2508 23.8106 43.5477 23.3265 43.8387C22.3949 44.398 21.4455 44.9237 20.505 45.4702C19.5478 46.0215 18.5906 46.5729 17.6717 47.1894C16.9782 47.654 16.263 48.085 15.5468 48.5141C14.9289 48.884 14.3023 49.2401 13.651 49.5498C13.1706 49.7835 12.6757 49.9861 12.1694 50.1564C11.6775 50.3118 11.1689 50.4084 10.6544 50.4444C10.6032 50.4444 10.5442 50.4277 10.5049 50.4809H10.1438C10.1376 50.4707 10.129 50.4622 10.1187 50.4562C10.1083 50.4502 10.0967 50.4468 10.0848 50.4464L9.61945 50.407C9.31458 50.3868 9.01149 50.3453 8.7124 50.2827C7.7667 50.0547 6.86291 49.6782 6.03454 49.1671C4.91661 48.4705 3.93861 47.5702 3.15106 46.5128C2.61564 45.7864 2.1768 44.9933 1.84558 44.1534C1.31179 42.8429 1.01882 41.4464 0.980834 40.0313C0.964011 39.5795 0.969921 39.1272 0.998542 38.676C1.02937 38.1953 1.07134 37.7166 1.12447 37.2399C1.21804 36.4888 1.3517 35.7434 1.52487 35.0067C1.63702 34.5027 1.72162 33.9937 1.80426 33.4828C1.87116 33.0438 1.91937 32.6019 1.96954 32.161C2.01381 31.7665 2.05021 31.3719 2.09251 30.9774C2.12104 30.7081 2.15351 30.4408 2.19089 30.1725C2.24303 29.7434 2.28927 29.3134 2.35125 28.8853C2.38863 28.616 2.37879 28.3448 2.39257 28.0745C2.41519 27.6375 2.47324 27.2016 2.41913 26.7626C2.36797 26.3454 2.33059 25.9272 2.24992 25.5139C2.14724 25.0074 2.01818 24.5066 1.86329 24.0136C1.6755 23.4108 1.43177 22.8269 1.13529 22.2697C0.960175 21.9324 0.741774 21.6226 0.545017 21.2991C0.365968 21.0032 0.183968 20.7073 0.00295142 20.4114L0 20.2674Z" fill="#C16AA7"/>
<path d="M53.9646 26.9945C53.9646 27.8546 53.7973 28.691 53.6242 29.5284C53.3304 30.9364 52.895 32.3109 52.3246 33.6308C52.2016 33.9178 52.055 34.195 51.9183 34.4761C51.8868 34.5392 51.8553 34.6181 51.7619 34.5935C51.7234 34.5836 51.6899 34.5598 51.6679 34.5267C51.6459 34.4935 51.637 34.4533 51.6428 34.414C51.6497 34.264 51.6546 34.1131 51.6723 33.9642C51.7884 32.9837 51.8622 32.0013 51.8858 31.0139C51.9035 30.2298 51.8347 29.4525 51.7756 28.6733C51.7117 27.8999 51.5997 27.1314 51.4402 26.3721C51.331 25.8335 51.1195 25.3265 50.9276 24.8146C50.5124 23.7431 50.0089 22.7081 49.4224 21.7203C49.1486 21.2606 48.8377 20.8242 48.4927 20.4154C48.0766 19.9084 47.6408 19.4191 47.1902 18.9437C46.5759 18.308 45.9117 17.7229 45.204 17.1939C44.534 16.6809 43.7686 16.3485 42.9914 16.0447C42.1426 15.7267 41.2639 15.4953 40.3687 15.3543C39.5236 15.2073 38.6736 15.0929 37.8206 15.0031C36.9195 14.9094 36.0203 14.8059 35.1211 14.6993C34.5053 14.6273 33.9003 14.5129 33.3307 14.2525C32.7085 13.9612 32.1524 13.5453 31.6966 13.0304C30.9096 12.1683 30.5515 11.1395 30.5062 9.9894C30.4354 8.14982 31.6681 6.71169 33.1565 6.23231C33.7341 6.04949 34.3324 5.94045 34.9372 5.90779C36.2918 5.82494 37.618 6.00643 38.9343 6.30234C40.1521 6.5764 41.3376 6.97877 42.471 7.50276C43.3832 7.91725 44.2562 8.41378 45.079 8.98626C45.5847 9.34333 46.0923 9.69645 46.5744 10.0851C47.293 10.6587 47.9709 11.282 48.6029 11.9503C49.4673 12.8702 50.2263 13.8843 50.8656 14.9735C51.4015 15.8735 51.8815 16.8058 52.3029 17.765C52.7557 18.8471 53.1177 19.9653 53.3851 21.1078C53.6669 22.2414 53.8571 23.3959 53.9537 24.5601C53.9646 24.6923 53.9646 24.8254 53.9695 24.9546C53.9555 25.1872 53.9657 25.4206 54 25.651V26.301C53.9641 26.5303 53.9522 26.7627 53.9646 26.9945Z" fill="#01729A"/>
<path d="M29.5432 50.4366C28.573 50.387 27.6101 50.2413 26.6685 50.0016C25.8441 49.7846 25.0276 49.5459 24.2297 49.249C23.2988 48.9096 22.3976 48.4936 21.5351 48.0052C21.5145 47.9933 21.4938 47.9815 21.4741 47.9677C21.4497 47.9553 21.4302 47.935 21.4188 47.9101C21.4074 47.8852 21.4047 47.8572 21.4112 47.8306C21.4179 47.8007 21.4342 47.7738 21.4577 47.7542C21.4812 47.7346 21.5105 47.7233 21.541 47.7221C21.619 47.7186 21.697 47.7226 21.7742 47.7339C22.1008 47.7803 22.4264 47.8325 22.7521 47.8809C23.3748 47.9746 23.9995 48.0456 24.6282 48.089C25.065 48.1186 25.5018 48.162 25.9395 48.1521C26.8446 48.1324 27.7477 48.0959 28.6509 48.0111C29.6524 47.9174 30.6007 47.6343 31.5412 47.3009C32.529 46.9431 33.4883 46.5109 34.4109 46.0078C35.0281 45.6586 35.6122 45.2538 36.1562 44.7985C36.8157 44.2871 37.4401 43.7318 38.0254 43.1364C38.4298 42.723 38.8114 42.2876 39.1685 41.8324C39.4231 41.4747 39.6497 41.0978 39.8463 40.705C40.2968 39.8539 40.6433 38.9514 40.8783 38.0172C41.08 37.2557 41.2266 36.4824 41.3614 35.7061C41.4745 35.0551 41.566 34.4001 41.6732 33.7472C41.7844 33.0715 41.8847 32.3929 42.0028 31.7182C42.1057 31.0507 42.347 30.4123 42.7111 29.8441C43.246 29.0137 44.0191 28.3652 44.9286 27.9838C45.7406 27.6378 46.6359 27.5373 47.5041 27.6948C48.5332 27.8792 49.3359 28.4395 49.9311 29.3016C50.2487 29.785 50.4665 30.3273 50.5716 30.8965C50.6973 31.5461 50.7379 32.2092 50.6926 32.8693C50.671 33.4704 50.6072 34.0693 50.5017 34.6615C50.3025 35.7567 50.0028 36.8312 49.6065 37.8712C49.0264 39.3838 48.249 40.8126 47.2946 42.1205C46.6249 43.0306 45.8949 43.8947 45.1096 44.7067C43.7264 46.1459 42.1081 47.2466 40.3323 48.1314C39.5835 48.5118 38.8154 48.8529 38.0313 49.1533C36.914 49.5572 35.7648 49.866 34.5959 50.0765C33.9013 50.2097 33.2028 50.3212 32.4984 50.3882C32.2899 50.408 32.0803 50.4198 31.8708 50.4346C31.7724 50.4346 31.674 50.4346 31.5757 50.4346C31.5088 50.4346 31.434 50.408 31.3789 50.4701H30.5102C30.4974 50.4574 30.4819 50.4478 30.4649 50.442C30.4478 50.4362 30.4297 50.4343 30.4118 50.4366H29.5432Z" fill="#765896"/>
<path d="M28.2582 0.00236396C28.7796 0.0122277 29.5637 0.0605606 30.3468 0.132566C31.321 0.221229 32.2876 0.380116 33.2391 0.607996C34.5033 0.898496 35.7293 1.33647 36.8919 1.91297C37.8297 2.38833 38.729 2.93645 39.5816 3.55232C40.4849 4.18993 41.3309 4.90547 42.1099 5.69077C42.2142 5.7973 42.2358 5.85352 42.1896 5.9206C42.1433 5.98767 42.0548 6.01036 41.9289 5.95611C41.676 5.8476 41.4222 5.73713 41.1733 5.61778C40.2899 5.19762 39.3803 4.8352 38.4502 4.53277C37.5365 4.23728 36.6041 4.00332 35.6592 3.83245C35.1357 3.7269 34.607 3.64888 34.0753 3.59868C33.7999 3.58027 33.5236 3.57862 33.248 3.59374C32.6065 3.62235 31.9631 3.63715 31.3266 3.72493C30.2386 3.87387 29.1505 4.02084 28.1126 4.4075C26.513 4.99933 24.9812 5.72135 23.5872 6.7166C23.4085 6.84846 23.2383 6.99143 23.0776 7.14468C21.9187 8.20503 21.0402 9.47252 20.323 10.8613C19.7435 11.9779 19.2231 13.1211 18.6938 14.2604C18.4282 14.8335 18.1724 15.4105 17.8783 15.9698C17.3271 17.0348 16.3954 17.852 15.2693 18.2581C14.0051 18.7405 12.7528 18.6655 11.5466 18.0895C10.7045 17.687 10.1221 17.0045 9.76599 16.1345C9.50726 15.5002 9.45118 14.8453 9.48955 14.1696C9.53382 13.3963 9.76895 12.6713 10.0169 11.9483C10.4438 10.7035 11.0852 9.56919 11.8073 8.47826C12.7652 7.03103 13.9322 5.73458 15.2703 4.63141C16.6823 3.44024 18.2478 2.44494 19.9246 1.67229C21.0978 1.14861 22.3251 0.756615 23.5842 0.503441C24.4591 0.319996 25.3427 0.181068 26.2316 0.087192C26.9049 0.0195339 27.5816 -0.00879 28.2582 0.00236396V0.00236396Z" fill="#029698"/>
</svg>
